<svg xmlns="http://www.w3.org/2000/svg" width="640" height="320" fill="none"><g clip-path="url(#a)"><g clip-path="url(#b)"><path fill="#FDE" fill-opacity=".56" d="M130-176h80V54h-80z"/><path d="m169.5-176 .5 230m0 0-14-14m14 14 14-14" stroke="#F6C"/><path fill="#FDE" fill-opacity=".28" d="M537 230h116v230H537z"/><path fill="#CEF" d="M345 266h80v230h-80z"/><path d="M345 287h80m-80 0 10-10m-10 10 10 10m70-10-10-10m10 10-10 10" stroke="#39F"/><path fill="#FDE" fill-opacity=".56" d="M441 266h80v40h-80z"/><path stroke="#F6C" stroke-dasharray="2 2" d="M226.5-211.5h198v249h-198zM130.5 266.5h198v249h-198zM441.5 26.5h211v63h-211z"/><path fill="#CEF" d="M441-64h212v74H441z"/><path d="M453 54v24m0 0h24m-24 0 51.5-51.5" stroke="#F6C" stroke-dasharray="2 2"/></g></g><defs><linearGradient id="c" x1="24" y1="221.528" x2="366.156" y2="-21.709" gradientUnits="userSpaceOnUse"><stop offset=".068" stop-color="#F39"/><stop offset=".38" stop-color="#93F"/><stop offset=".948" stop-color="#06F"/></linearGradient><linearGradient id="d" x1="24" y1="221.528" x2="366.156" y2="-21.709" gradientUnits="userSpaceOnUse"><stop offset=".068" stop-color="#F39"/><stop offset=".38" stop-color="#93F"/><stop offset=".948" stop-color="#06F"/></linearGradient><linearGradient id="e" x1="24" y1="221.528" x2="366.156" y2="-21.709" gradientUnits="userSpaceOnUse"><stop offset=".068" stop-color="#F39"/><stop offset=".38" stop-color="#93F"/><stop offset=".948" stop-color="#06F"/></linearGradient><linearGradient id="f" x1="24" y1="221.528" x2="366.156" y2="-21.709" gradientUnits="userSpaceOnUse"><stop offset=".068" stop-color="#F39"/><stop offset=".38" stop-color="#93F"/><stop offset=".948" stop-color="#06F"/></linearGradient><linearGradient id="g" x1="24" y1="221.528" x2="366.156" y2="-21.709" gradientUnits="userSpaceOnUse"><stop offset=".068" stop-color="#F39"/><stop offset=".38" stop-color="#93F"/><stop offset=".948" stop-color="#06F"/></linearGradient><linearGradient id="h" x1="24" y1="221.528" x2="366.156" y2="-21.709" gradientUnits="userSpaceOnUse"><stop offset=".068" stop-color="#F39"/><stop offset=".38" stop-color="#93F"/><stop offset=".948" stop-color="#06F"/></linearGradient><linearGradient id="i" x1="24" y1="221.528" x2="366.156" y2="-21.709" gradientUnits="userSpaceOnUse"><stop offset=".068" stop-color="#F39"/><stop offset=".38" stop-color="#93F"/><stop offset=".948" stop-color="#06F"/></linearGradient><linearGradient id="j" x1="24" y1="221.528" x2="366.156" y2="-21.709" gradientUnits="userSpaceOnUse"><stop offset=".068" stop-color="#F39"/><stop offset=".38" stop-color="#93F"/><stop offset=".948" stop-color="#06F"/></linearGradient><linearGradient id="k" x1="24" y1="221.528" x2="366.156" y2="-21.709" gradientUnits="userSpaceOnUse"><stop offset=".068" stop-color="#F39"/><stop offset=".38" stop-color="#93F"/><stop offset=".948" stop-color="#06F"/></linearGradient><linearGradient id="l" x1="24" y1="221.528" x2="366.156" y2="-21.709" gradientUnits="userSpaceOnUse"><stop offset=".068" stop-color="#F39"/><stop offset=".38" stop-color="#93F"/><stop offset=".948" stop-color="#06F"/></linearGradient><linearGradient id="m" x1="24" y1="221.528" x2="366.156" y2="-21.709" gradientUnits="userSpaceOnUse"><stop offset=".068" stop-color="#F39"/><stop offset=".38" stop-color="#93F"/><stop offset=".948" stop-color="#06F"/></linearGradient><linearGradient id="n" x1="24" y1="221.528" x2="366.156" y2="-21.709" gradientUnits="userSpaceOnUse"><stop offset=".068" stop-color="#F39"/><stop offset=".38" stop-color="#93F"/><stop offset=".948" stop-color="#06F"/></linearGradient><linearGradient id="o" x1="24" y1="221.528" x2="366.156" y2="-21.709" gradientUnits="userSpaceOnUse"><stop offset=".068" stop-color="#F39"/><stop offset=".38" stop-color="#93F"/><stop offset=".948" stop-color="#06F"/></linearGradient><linearGradient id="p" x1="24" y1="221.528" x2="366.156" y2="-21.709" gradientUnits="userSpaceOnUse"><stop offset=".068" stop-color="#F39"/><stop offset=".38" stop-color="#93F"/><stop offset=".948" stop-color="#06F"/></linearGradient><linearGradient id="q" x1="24" y1="221.528" x2="366.156" y2="-21.709" gradientUnits="userSpaceOnUse"><stop offset=".068" stop-color="#F39"/><stop offset=".38" stop-color="#93F"/><stop offset=".948" stop-color="#06F"/></linearGradient><linearGradient id="r" x1="24" y1="221.528" x2="366.156" y2="-21.709" gradientUnits="userSpaceOnUse"><stop offset=".068" stop-color="#F39"/><stop offset=".38" stop-color="#93F"/><stop offset=".948" stop-color="#06F"/></linearGradient><linearGradient id="s" x1="24" y1="221.528" x2="366.156" y2="-21.709" gradientUnits="userSpaceOnUse"><stop offset=".068" stop-color="#F39"/><stop offset=".38" stop-color="#93F"/><stop offset=".948" stop-color="#06F"/></linearGradient><clipPath id="a"><path fill="#fff" d="M0 0h640v320H0z"/></clipPath><clipPath id="b"><path fill="#fff" transform="translate(0 -160)" d="M0 0h640v640H0z"/></clipPath></defs></svg>