<svg width="640" height="320" viewBox="0 0 640 320" fill="none" xmlns="http://www.w3.org/2000/svg">
<g clip-path="url(#clip0)">
<g clip-path="url(#clip1)">
<rect x="130.5" y="240.5" width="47" height="47" stroke="#3399FF"/>
<rect x="218.5" y="240.5" width="47" height="47" stroke="#3399FF"/>
<path d="M230 263L238.69 273.5L254 255" stroke="#3399FF"/>
<rect x="130.5" y="32.5" width="239" height="47" stroke="#FF66CC"/>
<path d="M353.515 47.4853L336.544 64.4559M336.544 47.4853L353.515 64.4559" stroke="#FF66CC"/>
<rect x="514.5" y="240.5" width="239" height="47" stroke="#FF66CC"/>
<path d="M535.818 265.125L530.631 263.438L531.131 261.859L536.318 263.781L536.256 258H537.881L537.756 263.828L542.818 261.844L543.334 263.422L538.131 265.219L541.615 269.812L540.287 270.797L536.943 266.031L533.756 270.766L532.428 269.812L535.818 265.125Z" fill="#FF66CC"/>
<path d="M552.612 265.125L547.425 263.438L547.925 261.859L553.112 263.781L553.05 258H554.675L554.55 263.828L559.612 261.844L560.128 263.422L554.925 265.219L558.409 269.812L557.081 270.797L553.737 266.031L550.55 270.766L549.221 269.812L552.612 265.125Z" fill="#FF66CC"/>
<path d="M569.406 265.125L564.218 263.438L564.718 261.859L569.906 263.781L569.843 258H571.468L571.343 263.828L576.406 261.844L576.921 263.422L571.718 265.219L575.203 269.812L573.875 270.797L570.531 266.031L567.343 270.766L566.015 269.812L569.406 265.125Z" fill="#FF66CC"/>
<path d="M586.2 265.125L581.012 263.438L581.512 261.859L586.7 263.781L586.637 258H588.262L588.137 263.828L593.2 261.844L593.715 263.422L588.512 265.219L591.996 269.812L590.668 270.797L587.325 266.031L584.137 270.766L582.809 269.812L586.2 265.125Z" fill="#FF66CC"/>
<path d="M602.993 265.125L597.806 263.438L598.306 261.859L603.493 263.781L603.431 258H605.056L604.931 263.828L609.993 261.844L610.509 263.422L605.306 265.219L608.79 269.812L607.462 270.797L604.118 266.031L600.931 270.766L599.603 269.812L602.993 265.125Z" fill="#FF66CC"/>
<circle cx="434" cy="56" r="23.5" stroke="#3399FF"/>
<circle cx="434" cy="56" r="15.5" stroke="#3399FF"/>
<mask id="mask0" style="mask-type:alpha" maskUnits="userSpaceOnUse" x="418" y="40" width="32" height="32">
<circle cx="434" cy="56" r="16" fill="#C4C4C4"/>
</mask>
<g mask="url(#mask0)">
<path d="M433.941 22L400 55.9411M438.184 26.2426L404.243 60.1838M442.426 30.4853L408.485 64.4264M446.669 34.7279L412.728 68.669M450.912 38.9706L416.971 72.9117M455.154 43.2132L421.213 77.1543M463.64 51.6985L429.699 85.6396M467.882 55.9411L433.941 89.8822M459.397 47.4558L425.456 81.397" stroke="#3399FF"/>
</g>
<rect x="618.5" y="32.5" width="79" height="47" rx="23.5" stroke="#3399FF"/>
<circle cx="642" cy="56" r="15.5" stroke="#3399FF"/>
<mask id="mask1" style="mask-type:alpha" maskUnits="userSpaceOnUse" x="626" y="40" width="32" height="32">
<circle cx="642" cy="56" r="16" fill="#C4C4C4"/>
</mask>
<g mask="url(#mask1)">
<path d="M641.941 22L608 55.9411M646.184 26.2426L612.243 60.1838M650.426 30.4853L616.485 64.4264M654.669 34.7279L620.728 68.669M658.912 38.9706L624.971 72.9117M663.154 43.2132L629.213 77.1543M671.64 51.6985L637.699 85.6396M675.882 55.9411L641.941 89.8822M667.397 47.4558L633.456 81.397" stroke="#3399FF"/>
</g>
<rect x="498.5" y="32.5" width="79" height="47" rx="23.5" stroke="#3399FF"/>
<path fill-rule="evenodd" clip-rule="evenodd" d="M522 40C513.163 40 506 47.1634 506 56C506 64.8366 513.163 72 522 72H554C545.163 72 538 64.8366 538 56C538 47.1634 545.163 40 554 40H522Z" fill="#3399FF"/>
<circle cx="554" cy="56" r="15.5" stroke="#3399FF"/>
<circle cx="390" cy="264" r="15.5" stroke="#3399FF"/>
<mask id="mask2" style="mask-type:alpha" maskUnits="userSpaceOnUse" x="374" y="248" width="32" height="32">
<circle cx="390" cy="264" r="16" fill="#C4C4C4"/>
</mask>
<g mask="url(#mask2)">
<path d="M389.941 230L356 263.941M394.184 234.243L360.243 268.184M398.426 238.485L364.485 272.426M402.669 242.728L368.728 276.669M406.912 246.971L372.971 280.912M411.154 251.213L377.213 285.154M419.64 259.698L385.699 293.64M423.882 263.941L389.941 297.882M415.397 255.456L381.456 289.397" stroke="#3399FF"/>
</g>
<line x1="306" y1="263.5" x2="366" y2="263.5" stroke="#3399FF"/>
<line x1="414" y1="263.5" x2="474" y2="263.5" stroke="#3399FF"/>
</g>
</g>
<defs>
<linearGradient id="paint0_linear" x1="169.754" y1="180" x2="331.12" y2="128.589" gradientUnits="userSpaceOnUse">
<stop offset="0.0677083" stop-color="#3399FF"/>
<stop offset="0.34375" stop-color="#0066FF"/>
<stop offset="0.619792" stop-color="#9933FF"/>
<stop offset="0.911458" stop-color="#FF3399"/>
</linearGradient>
<linearGradient id="paint1_linear" x1="169.754" y1="180" x2="331.12" y2="128.589" gradientUnits="userSpaceOnUse">
<stop offset="0.0677083" stop-color="#3399FF"/>
<stop offset="0.34375" stop-color="#0066FF"/>
<stop offset="0.619792" stop-color="#9933FF"/>
<stop offset="0.911458" stop-color="#FF3399"/>
</linearGradient>
<linearGradient id="paint2_linear" x1="169.754" y1="180" x2="331.12" y2="128.589" gradientUnits="userSpaceOnUse">
<stop offset="0.0677083" stop-color="#3399FF"/>
<stop offset="0.34375" stop-color="#0066FF"/>
<stop offset="0.619792" stop-color="#9933FF"/>
<stop offset="0.911458" stop-color="#FF3399"/>
</linearGradient>
<linearGradient id="paint3_linear" x1="169.754" y1="180" x2="331.12" y2="128.589" gradientUnits="userSpaceOnUse">
<stop offset="0.0677083" stop-color="#3399FF"/>
<stop offset="0.34375" stop-color="#0066FF"/>
<stop offset="0.619792" stop-color="#9933FF"/>
<stop offset="0.911458" stop-color="#FF3399"/>
</linearGradient>
<linearGradient id="paint4_linear" x1="169.754" y1="180" x2="331.12" y2="128.589" gradientUnits="userSpaceOnUse">
<stop offset="0.0677083" stop-color="#3399FF"/>
<stop offset="0.34375" stop-color="#0066FF"/>
<stop offset="0.619792" stop-color="#9933FF"/>
<stop offset="0.911458" stop-color="#FF3399"/>
</linearGradient>
<linearGradient id="paint5_linear" x1="169.754" y1="180" x2="331.12" y2="128.589" gradientUnits="userSpaceOnUse">
<stop offset="0.0677083" stop-color="#3399FF"/>
<stop offset="0.34375" stop-color="#0066FF"/>
<stop offset="0.619792" stop-color="#9933FF"/>
<stop offset="0.911458" stop-color="#FF3399"/>
</linearGradient>
<clipPath id="clip0">
<rect width="640" height="320" fill="white"/>
</clipPath>
<clipPath id="clip1">
<rect width="640" height="640" fill="white" transform="translate(0 -160)"/>
</clipPath>
</defs>
</svg>
