<svg xmlns="http://www.w3.org/2000/svg" viewBox="0 0 918.35 1079"><defs><style>.cls-1{fill:#ff7bac;}.cls-1,.cls-22{opacity:0.25;}.cls-2{fill:#3fa9f5;}.cls-3,.cls-4{fill:#1b1f3b;}.cls-3{stroke:#000;}.cls-10,.cls-17,.cls-19,.cls-20,.cls-3,.cls-6{stroke-miterlimit:10;}.cls-4{opacity:0.6;}.cls-5{fill:#333;stroke:#4d4d4d;stroke-linecap:round;stroke-linejoin:round;}.cls-17,.cls-5{stroke-width:2px;}.cls-21,.cls-6,.cls-9{fill:#fff;}.cls-17,.cls-19,.cls-20,.cls-6{stroke:#1a1a1a;}.cls-6{stroke-width:0.65px;}.cls-11,.cls-12,.cls-7{font-size:12px;}.cls-7{font-family:Montserrat-Bold, Montserrat;font-weight:700;}.cls-13,.cls-8{font-size:16px;}.cls-12,.cls-13,.cls-8{font-family:Montserrat-SemiBold, Montserrat;font-weight:600;}.cls-10,.cls-17,.cls-20{fill:none;}.cls-10{stroke:#ff1d25;}.cls-11,.cls-12{fill:#ff1d25;}.cls-11{font-family:Montserrat-Medium, Montserrat;font-weight:500;}.cls-13{fill:#b3b3b3;}.cls-14,.cls-22{fill:#f2f6fc;}.cls-14,.cls-18,.cls-21,.cls-22{fill-rule:evenodd;}.cls-14{opacity:0.51;}.cls-15{fill:#34a853;}.cls-15,.cls-16,.cls-21,.cls-23{opacity:0.5;}.cls-18,.cls-24{fill:#1a1a1a;}.cls-19{fill:#7ac943;}.cls-23{fill:#ff931e;}.cls-24{opacity:0.2;}</style></defs><g id="Layer_2" data-name="Layer 2"><g id="Layer_2-2" data-name="Layer 2"><path class="cls-1" d="M405.72,219H917.35a0,0,0,0,1,0,0v801a0,0,0,0,1,0,0H405.72a49.37,49.37,0,0,1-49.37-49.37V268.37A49.37,49.37,0,0,1,405.72,219Z"/><rect class="cls-2" x="467.57" y="294" width="231.5" height="65" rx="8"/><line class="cls-3" x1="461.63" y1="365.62" x2="692.63" y2="365.62"/><line class="cls-3" x1="461.63" y1="302.12" x2="692.63" y2="302.12"/><line class="cls-3" x1="461.57" y1="365.5" x2="461.57" y2="298"/><line class="cls-3" x1="692.92" y1="369.45" x2="692.92" y2="301.95"/><rect class="cls-4" x="455.63" y="295.62" width="12" height="12" rx="1.01"/><rect class="cls-4" x="455.63" y="359.62" width="12" height="12" rx="1.01"/><rect class="cls-4" x="573.63" y="295.62" width="12" height="12" rx="1.01"/><rect class="cls-4" x="573.63" y="359.62" width="12" height="12" rx="1.01"/><rect class="cls-4" x="686.63" y="295.62" width="12" height="12" rx="1.01"/><rect class="cls-4" x="686.63" y="359.62" width="12" height="12" rx="1.01"/><line class="cls-5" x1="420.57" y1="365.5" x2="420.6" y2="301.87"/><line class="cls-5" x1="423.94" y1="310.02" x2="420.57" y2="301.5"/><line class="cls-5" x1="420.64" y1="301.5" x2="417.27" y2="310.02"/><line class="cls-5" x1="423.94" y1="357.5" x2="420.57" y2="366.02"/><line class="cls-5" x1="420.64" y1="366.02" x2="417.27" y2="357.5"/><rect class="cls-6" x="395.07" y="321" width="49" height="24" rx="8.14"/><text class="cls-7" transform="translate(403.81 336.5)">48px</text><text class="cls-8" transform="translate(522.49 339.17)">Simple button</text><rect class="cls-9" x="412.07" y="885.31" width="399.28" height="72.69" rx="8"/><rect class="cls-10" x="409.07" y="896.31" width="399.28" height="65" rx="8"/><rect class="cls-9" x="422.35" y="886" width="50" height="19" rx="8"/><text class="cls-11" transform="translate(430.44 980.28)">Error hint text</text><text class="cls-12" transform="translate(429.93 900.49)">Label</text><text class="cls-13" transform="translate(430.93 936.49)">Placeholder text</text><line class="cls-5" x1="847.61" y1="961.8" x2="847.64" y2="898.17"/><line class="cls-5" x1="850.97" y1="906.32" x2="847.61" y2="897.8"/><line class="cls-5" x1="847.67" y1="897.8" x2="844.31" y2="906.32"/><line class="cls-5" x1="850.97" y1="953.8" x2="847.61" y2="962.32"/><line class="cls-5" x1="847.67" y1="962.32" x2="844.31" y2="953.8"/><rect class="cls-6" x="822.11" y="917.3" width="49" height="24" rx="8.14"/><text class="cls-7" transform="translate(830.84 932.81)">48px</text><path class="cls-14" d="M475.74,1079a253.42,253.42,0,0,0,27.61-115.7c0-139.79-114.27-251.67-253.11-251.67C111.17,711.63,0,823.51,0,963.3A256,256,0,0,0,27.39,1079Z"/><path class="cls-15" d="M676.7,510c63.37,0,115.65-52.28,115.65-115.65S740.07,278.69,676.7,278.69,561,331,561,394.35,613.32,510,676.7,510Z"/><g class="cls-16"><rect class="cls-2" x="604.56" y="594" width="233.79" height="191" rx="8"/></g><g class="cls-16"><rect class="cls-17" x="604.56" y="594" width="233.79" height="191" rx="8"/></g><path class="cls-18" d="M639.41,645.5a16.25,16.25,0,1,0-16.24-16.25A16.26,16.26,0,0,0,639.41,645.5Zm17.75-16.25a17.75,17.75,0,1,1-17.75-17.74A17.75,17.75,0,0,1,657.16,629.25Z"/><path class="cls-18" d="M639.31,697.39a16.24,16.24,0,1,0-16.24-16.24A16.24,16.24,0,0,0,639.31,697.39Zm17.74-16.24a17.75,17.75,0,1,1-17.74-17.75A17.74,17.74,0,0,1,657.05,681.15Z"/><path class="cls-18" d="M639.8,749.48a16.25,16.25,0,1,0-16.24-16.25A16.25,16.25,0,0,0,639.8,749.48Zm17.74-16.25a17.75,17.75,0,1,1-17.74-17.74A17.75,17.75,0,0,1,657.54,733.23Z"/><path class="cls-19" d="M639.37,690a9,9,0,1,0-9-9A9.05,9.05,0,0,0,639.37,690Z"/><line class="cls-5" x1="587.79" y1="749.89" x2="587.86" y2="613.79"/><line class="cls-5" x1="594.35" y1="621" x2="587.79" y2="613"/><line class="cls-5" x1="587.93" y1="613" x2="581.35" y2="621"/><line class="cls-5" x1="594.35" y1="745" x2="587.79" y2="751"/><line class="cls-5" x1="587.93" y1="751" x2="582.35" y2="745"/><rect class="cls-9" x="671.43" y="625" width="143.92" height="9.35" rx="4.67"/><rect class="cls-9" x="671.12" y="676.33" width="143.92" height="9.35" rx="4.67"/><rect class="cls-9" x="671.12" y="728.33" width="143.92" height="9.35" rx="4.67"/><rect class="cls-20" x="671.12" y="676.33" width="143.92" height="9.35" rx="4.67"/><path class="cls-21" d="M918.35,392A174.06,174.06,0,0,0,838.94,373c-96,0-172.75,78.43-172.75,173.73,0,95.47,76.79,171.77,172.75,171.77a175.66,175.66,0,0,0,79.41-18.8Z"/><path class="cls-22" d="M131.86,0a253.54,253.54,0,0,0-27.61,115.7c0,139.79,114.27,251.67,253.11,251.67,139.07,0,250.24-111.88,250.24-251.67A255.92,255.92,0,0,0,580.21,0Z"/><rect class="cls-23" x="248.35" y="514" width="219" height="46" rx="23"/><rect class="cls-20" x="245.35" y="518" width="219" height="46" rx="23"/><circle class="cls-24" cx="270.85" cy="540.5" r="16.5"/><rect class="cls-24" x="296.35" y="535" width="146" height="12" rx="6"/><line class="cls-5" x1="247.28" y1="589.24" x2="465.11" y2="589.51"/><line class="cls-5" x1="457.17" y1="595.8" x2="465.17" y2="589.24"/><line class="cls-5" x1="465.17" y1="589.38" x2="457.17" y2="582.8"/><line class="cls-5" x1="252.17" y1="595.8" x2="246.17" y2="589.24"/><line class="cls-5" x1="246.17" y1="589.38" x2="252.17" y2="583.8"/><rect class="cls-6" x="318.85" y="577.5" width="80" height="24" rx="8.14"/><text class="cls-7" transform="translate(328.59 593)">min: 64px</text></g></g></svg>