<svg xmlns="http://www.w3.org/2000/svg" viewBox="0 0 672.5 801"><defs><style>.cls-1{fill:#ff7bac;opacity:0.25;}.cls-2{fill:#3fa9f5;}.cls-3,.cls-4{fill:#1b1f3b;}.cls-3{stroke:#000;}.cls-10,.cls-16,.cls-18,.cls-19,.cls-3,.cls-6{stroke-miterlimit:10;}.cls-4{opacity:0.6;}.cls-5{fill:#333;stroke:#4d4d4d;stroke-linecap:round;stroke-linejoin:round;}.cls-16,.cls-5{stroke-width:2px;}.cls-6,.cls-9{fill:#fff;}.cls-16,.cls-18,.cls-19,.cls-6{stroke:#1a1a1a;}.cls-6{stroke-width:0.65px;}.cls-11,.cls-12,.cls-7{font-size:12px;}.cls-7{font-family:Montserrat-Bold, Montserrat;font-weight:700;}.cls-13,.cls-8{font-size:16px;}.cls-12,.cls-13,.cls-8{font-family:Montserrat-SemiBold, Montserrat;font-weight:600;}.cls-10,.cls-16,.cls-19{fill:none;}.cls-10{stroke:#ff1d25;}.cls-11,.cls-12{fill:#ff1d25;}.cls-11{font-family:Montserrat-Medium, Montserrat;font-weight:500;}.cls-13{fill:#b3b3b3;}.cls-14{fill:#34a853;}.cls-14,.cls-15,.cls-20{opacity:0.5;}.cls-17,.cls-21{fill:#1a1a1a;}.cls-17{fill-rule:evenodd;}.cls-18{fill:#7ac943;}.cls-20{fill:#ff931e;}.cls-21{opacity:0.2;}</style></defs><g id="Layer_2" data-name="Layer 2"><g id="Layer_2-2" data-name="Layer 2"><path class="cls-1" d="M160.87,0H672.5a0,0,0,0,1,0,0V801a0,0,0,0,1,0,0H160.87a49.37,49.37,0,0,1-49.37-49.37V49.37A49.37,49.37,0,0,1,160.87,0Z"/><rect class="cls-2" x="222.72" y="75" width="231.5" height="65" rx="8"/><line class="cls-3" x1="216.78" y1="146.62" x2="447.78" y2="146.62"/><line class="cls-3" x1="216.78" y1="83.12" x2="447.78" y2="83.12"/><line class="cls-3" x1="216.72" y1="146.5" x2="216.72" y2="79"/><line class="cls-3" x1="448.07" y1="150.45" x2="448.07" y2="82.95"/><rect class="cls-4" x="210.78" y="76.62" width="12" height="12" rx="1.01"/><rect class="cls-4" x="210.78" y="140.62" width="12" height="12" rx="1.01"/><rect class="cls-4" x="328.78" y="76.62" width="12" height="12" rx="1.01"/><rect class="cls-4" x="328.78" y="140.62" width="12" height="12" rx="1.01"/><rect class="cls-4" x="441.78" y="76.62" width="12" height="12" rx="1.01"/><rect class="cls-4" x="441.78" y="140.62" width="12" height="12" rx="1.01"/><line class="cls-5" x1="175.72" y1="146.5" x2="175.75" y2="82.87"/><line class="cls-5" x1="179.09" y1="91.02" x2="175.72" y2="82.5"/><line class="cls-5" x1="175.78" y1="82.5" x2="172.42" y2="91.02"/><line class="cls-5" x1="179.09" y1="138.5" x2="175.72" y2="147.02"/><line class="cls-5" x1="175.78" y1="147.02" x2="172.42" y2="138.5"/><rect class="cls-6" x="150.22" y="102" width="49" height="24" rx="8.14"/><text class="cls-7" transform="translate(158.96 117.5)">48px</text><text class="cls-8" transform="translate(277.64 120.17)">Simple button</text><rect class="cls-9" x="167.22" y="666.31" width="399.28" height="72.69" rx="8"/><rect class="cls-10" x="164.22" y="677.31" width="399.28" height="65" rx="8"/><rect class="cls-9" x="177.5" y="667" width="50" height="19" rx="8"/><text class="cls-11" transform="translate(185.59 761.28)">Error hint text</text><text class="cls-12" transform="translate(185.07 681.49)">Label</text><text class="cls-13" transform="translate(186.07 717.49)">Placeholder text</text><line class="cls-5" x1="602.76" y1="742.8" x2="602.79" y2="679.17"/><line class="cls-5" x1="606.12" y1="687.32" x2="602.76" y2="678.8"/><line class="cls-5" x1="602.82" y1="678.8" x2="599.45" y2="687.32"/><line class="cls-5" x1="606.12" y1="734.8" x2="602.76" y2="743.32"/><line class="cls-5" x1="602.82" y1="743.32" x2="599.45" y2="734.8"/><rect class="cls-6" x="577.26" y="698.3" width="49" height="24" rx="8.14"/><text class="cls-7" transform="translate(585.99 713.81)">48px</text><path class="cls-14" d="M431.85,291c63.37,0,115.65-52.28,115.65-115.65S495.22,59.69,431.85,59.69,316.19,112,316.19,175.35,368.47,291,431.85,291Z"/><g class="cls-15"><rect class="cls-2" x="359.71" y="375" width="233.79" height="191" rx="8"/></g><g class="cls-15"><rect class="cls-16" x="359.71" y="375" width="233.79" height="191" rx="8"/></g><path class="cls-17" d="M394.56,426.5a16.25,16.25,0,1,0-16.24-16.25A16.25,16.25,0,0,0,394.56,426.5Zm17.75-16.25a17.75,17.75,0,1,1-17.75-17.74A17.75,17.75,0,0,1,412.31,410.25Z"/><path class="cls-17" d="M394.46,478.39a16.24,16.24,0,1,0-16.24-16.24A16.24,16.24,0,0,0,394.46,478.39Zm17.74-16.24a17.75,17.75,0,1,1-17.74-17.75A17.74,17.74,0,0,1,412.2,462.15Z"/><path class="cls-17" d="M395,530.48a16.25,16.25,0,1,0-16.25-16.25A16.25,16.25,0,0,0,395,530.48Zm17.74-16.25A17.75,17.75,0,1,1,395,496.49,17.75,17.75,0,0,1,412.69,514.23Z"/><path class="cls-18" d="M394.52,471a9,9,0,1,0-9-9A9.05,9.05,0,0,0,394.52,471Z"/><line class="cls-5" x1="342.94" y1="530.89" x2="343.01" y2="394.79"/><line class="cls-5" x1="349.5" y1="402" x2="342.94" y2="394"/><line class="cls-5" x1="343.08" y1="394" x2="336.5" y2="402"/><line class="cls-5" x1="349.5" y1="526" x2="342.94" y2="532"/><line class="cls-5" x1="343.08" y1="532" x2="337.5" y2="526"/><rect class="cls-9" x="426.58" y="406" width="143.92" height="9.35" rx="4.67"/><rect class="cls-9" x="426.26" y="457.33" width="143.92" height="9.35" rx="4.67"/><rect class="cls-9" x="426.26" y="509.33" width="143.92" height="9.35" rx="4.67"/><rect class="cls-19" x="426.26" y="457.33" width="143.92" height="9.35" rx="4.67"/><rect class="cls-20" x="3.5" y="295" width="219" height="46" rx="23"/><rect class="cls-19" x="0.5" y="299" width="219" height="46" rx="23"/><circle class="cls-21" cx="26" cy="321.5" r="16.5"/><rect class="cls-21" x="51.5" y="316" width="146" height="12" rx="6"/><line class="cls-5" x1="2.43" y1="370.24" x2="220.26" y2="370.51"/><line class="cls-5" x1="212.32" y1="376.8" x2="220.32" y2="370.24"/><line class="cls-5" x1="220.32" y1="370.38" x2="212.32" y2="363.8"/><line class="cls-5" x1="7.32" y1="376.8" x2="1.32" y2="370.24"/><line class="cls-5" x1="1.32" y1="370.38" x2="7.32" y2="364.8"/><rect class="cls-6" x="74" y="358.5" width="80" height="24" rx="8.14"/><text class="cls-7" transform="translate(83.74 374)">min: 64px</text></g></g></svg>