<svg xmlns="http://www.w3.org/2000/svg" viewBox="0 0 691.06 441.82"><defs><style>.cls-1,.cls-2{fill:none;stroke:#000;stroke-linecap:round;stroke-linejoin:round;stroke-width:2px;}.cls-2{stroke-dasharray:23.58 23.58;}</style></defs><g id="Layer_2" data-name="Layer 2"><g id="Layer_1-2" data-name="Layer 1"><path class="cls-1" d="M484,1a69,69,0,0,1,11.82,2"/><path class="cls-2" d="M518.38,9.88c28,10,61.91,26.1,74.62,36.12,68.12,53.73,130.24,100.45,77,206-22.27,44.15-112.06,111.56-195,140-23.14,7.93-195.26,13.43-283,26-28.39,4.07-104.12,5.45-166.33,13.24"/><path class="cls-1" d="M14,432.8q-6.06.87-11.86,1.84"/><polygon points="7.52 425.63 9.08 426.88 2.91 434.57 11.03 440.17 9.89 441.82 0 435 7.52 425.63"/></g></g></svg>